<mxfile host="app.diagrams.net" agent="Mozilla/5.0 (Windows NT 10.0; Win64; x64) AppleWebKit/537.36 (KHTML, like Gecko) Chrome/140.0.0.0 Safari/537.36 Edg/140.0.0.0" version="28.2.0">
  <diagram name="Page-1" id="L1fGmDHRjzZDDIiQH0Im">
    <mxGraphModel dx="4444" dy="2429" grid="1" gridSize="10" guides="1" tooltips="1" connect="1" arrows="1" fold="1" page="1" pageScale="1" pageWidth="827" pageHeight="1169" math="0" shadow="0">
      <root>
        <mxCell id="0" />
        <mxCell id="1" parent="0" />
        <mxCell id="xt_aL315ucir2fl7YpX6-3" style="edgeStyle=orthogonalEdgeStyle;rounded=0;orthogonalLoop=1;jettySize=auto;html=1;" parent="1" source="xt_aL315ucir2fl7YpX6-1" target="xt_aL315ucir2fl7YpX6-2" edge="1">
          <mxGeometry relative="1" as="geometry" />
        </mxCell>
        <mxCell id="xt_aL315ucir2fl7YpX6-1" value="Start" style="ellipse;whiteSpace=wrap;html=1;" parent="1" vertex="1">
          <mxGeometry x="340" width="120" height="80" as="geometry" />
        </mxCell>
        <mxCell id="fWArumoUGyQqup7pknku-15" style="edgeStyle=orthogonalEdgeStyle;rounded=0;orthogonalLoop=1;jettySize=auto;html=1;entryX=0;entryY=0.5;entryDx=0;entryDy=0;" edge="1" parent="1" source="xt_aL315ucir2fl7YpX6-2" target="fWArumoUGyQqup7pknku-1">
          <mxGeometry relative="1" as="geometry" />
        </mxCell>
        <mxCell id="xt_aL315ucir2fl7YpX6-2" value="call listenerLoop" style="rounded=0;whiteSpace=wrap;html=1;" parent="1" vertex="1">
          <mxGeometry x="340" y="100" width="120" height="60" as="geometry" />
        </mxCell>
        <mxCell id="fWArumoUGyQqup7pknku-6" style="edgeStyle=orthogonalEdgeStyle;rounded=0;orthogonalLoop=1;jettySize=auto;html=1;" edge="1" parent="1" source="fWArumoUGyQqup7pknku-1" target="fWArumoUGyQqup7pknku-2">
          <mxGeometry relative="1" as="geometry" />
        </mxCell>
        <mxCell id="fWArumoUGyQqup7pknku-1" value="function listenerLoop" style="ellipse;whiteSpace=wrap;html=1;" vertex="1" parent="1">
          <mxGeometry x="820" width="120" height="80" as="geometry" />
        </mxCell>
        <mxCell id="fWArumoUGyQqup7pknku-2" value="Start a listener on port 8080" style="rounded=0;whiteSpace=wrap;html=1;" vertex="1" parent="1">
          <mxGeometry x="820" y="110" width="120" height="60" as="geometry" />
        </mxCell>
        <mxCell id="fWArumoUGyQqup7pknku-9" style="edgeStyle=orthogonalEdgeStyle;rounded=0;orthogonalLoop=1;jettySize=auto;html=1;entryX=1;entryY=0.25;entryDx=0;entryDy=0;" edge="1" parent="1" source="fWArumoUGyQqup7pknku-8" target="fWArumoUGyQqup7pknku-2">
          <mxGeometry relative="1" as="geometry">
            <Array as="points">
              <mxPoint x="960" y="250" />
              <mxPoint x="960" y="125" />
            </Array>
          </mxGeometry>
        </mxCell>
        <mxCell id="fWArumoUGyQqup7pknku-13" style="edgeStyle=orthogonalEdgeStyle;rounded=0;orthogonalLoop=1;jettySize=auto;html=1;entryX=0.5;entryY=0;entryDx=0;entryDy=0;" edge="1" parent="1" source="fWArumoUGyQqup7pknku-8" target="fWArumoUGyQqup7pknku-12">
          <mxGeometry relative="1" as="geometry" />
        </mxCell>
        <mxCell id="fWArumoUGyQqup7pknku-8" value="Is there an event&lt;div&gt;in the listener&lt;/div&gt;" style="rhombus;whiteSpace=wrap;html=1;" vertex="1" parent="1">
          <mxGeometry x="820" y="190" width="123" height="120" as="geometry" />
        </mxCell>
        <mxCell id="fWArumoUGyQqup7pknku-10" value="no" style="text;html=1;align=center;verticalAlign=middle;whiteSpace=wrap;rounded=0;" vertex="1" parent="1">
          <mxGeometry x="943" y="235" width="60" height="30" as="geometry" />
        </mxCell>
        <mxCell id="fWArumoUGyQqup7pknku-73" style="edgeStyle=orthogonalEdgeStyle;rounded=0;orthogonalLoop=1;jettySize=auto;html=1;" edge="1" parent="1" source="fWArumoUGyQqup7pknku-12" target="fWArumoUGyQqup7pknku-72">
          <mxGeometry relative="1" as="geometry" />
        </mxCell>
        <mxCell id="fWArumoUGyQqup7pknku-12" value="Is the event an&lt;div&gt;invite (call joinProject)&lt;/div&gt;" style="rhombus;whiteSpace=wrap;html=1;" vertex="1" parent="1">
          <mxGeometry x="820" y="350" width="123" height="120" as="geometry" />
        </mxCell>
        <mxCell id="fWArumoUGyQqup7pknku-19" style="edgeStyle=orthogonalEdgeStyle;rounded=0;orthogonalLoop=1;jettySize=auto;html=1;" edge="1" parent="1" source="fWArumoUGyQqup7pknku-14" target="fWArumoUGyQqup7pknku-18">
          <mxGeometry relative="1" as="geometry" />
        </mxCell>
        <mxCell id="fWArumoUGyQqup7pknku-14" value="function joinProject" style="ellipse;whiteSpace=wrap;html=1;" vertex="1" parent="1">
          <mxGeometry x="1230" width="120" height="80" as="geometry" />
        </mxCell>
        <mxCell id="fWArumoUGyQqup7pknku-16" style="edgeStyle=orthogonalEdgeStyle;rounded=0;orthogonalLoop=1;jettySize=auto;html=1;entryX=0;entryY=0.375;entryDx=0;entryDy=0;entryPerimeter=0;" edge="1" parent="1" source="fWArumoUGyQqup7pknku-12" target="fWArumoUGyQqup7pknku-14">
          <mxGeometry relative="1" as="geometry" />
        </mxCell>
        <mxCell id="fWArumoUGyQqup7pknku-26" style="edgeStyle=orthogonalEdgeStyle;rounded=0;orthogonalLoop=1;jettySize=auto;html=1;" edge="1" parent="1" source="fWArumoUGyQqup7pknku-18" target="fWArumoUGyQqup7pknku-21">
          <mxGeometry relative="1" as="geometry" />
        </mxCell>
        <mxCell id="fWArumoUGyQqup7pknku-18" value="Display to user that&lt;div&gt;they have been&lt;/div&gt;&lt;div&gt;invited&lt;/div&gt;" style="shape=parallelogram;perimeter=parallelogramPerimeter;whiteSpace=wrap;html=1;fixedSize=1;" vertex="1" parent="1">
          <mxGeometry x="1230" y="110" width="120" height="60" as="geometry" />
        </mxCell>
        <mxCell id="fWArumoUGyQqup7pknku-23" style="edgeStyle=orthogonalEdgeStyle;rounded=0;orthogonalLoop=1;jettySize=auto;html=1;entryX=1;entryY=0.5;entryDx=0;entryDy=0;" edge="1" parent="1" source="fWArumoUGyQqup7pknku-21" target="fWArumoUGyQqup7pknku-22">
          <mxGeometry relative="1" as="geometry">
            <Array as="points">
              <mxPoint x="1380" y="260" />
              <mxPoint x="1380" y="680" />
              <mxPoint x="1350" y="680" />
            </Array>
          </mxGeometry>
        </mxCell>
        <mxCell id="fWArumoUGyQqup7pknku-28" style="edgeStyle=orthogonalEdgeStyle;rounded=0;orthogonalLoop=1;jettySize=auto;html=1;entryX=0.5;entryY=0;entryDx=0;entryDy=0;" edge="1" parent="1" source="fWArumoUGyQqup7pknku-21" target="fWArumoUGyQqup7pknku-27">
          <mxGeometry relative="1" as="geometry" />
        </mxCell>
        <mxCell id="fWArumoUGyQqup7pknku-21" value="Did they accept&lt;div&gt;invite&lt;/div&gt;" style="rhombus;whiteSpace=wrap;html=1;" vertex="1" parent="1">
          <mxGeometry x="1227" y="200" width="123" height="120" as="geometry" />
        </mxCell>
        <mxCell id="fWArumoUGyQqup7pknku-22" value="End" style="ellipse;whiteSpace=wrap;html=1;" vertex="1" parent="1">
          <mxGeometry x="1230" y="630" width="120" height="80" as="geometry" />
        </mxCell>
        <mxCell id="fWArumoUGyQqup7pknku-24" value="No" style="text;html=1;align=center;verticalAlign=middle;whiteSpace=wrap;rounded=0;" vertex="1" parent="1">
          <mxGeometry x="1350" y="230" width="60" height="30" as="geometry" />
        </mxCell>
        <mxCell id="fWArumoUGyQqup7pknku-32" style="edgeStyle=orthogonalEdgeStyle;rounded=0;orthogonalLoop=1;jettySize=auto;html=1;" edge="1" parent="1" source="fWArumoUGyQqup7pknku-27" target="fWArumoUGyQqup7pknku-30">
          <mxGeometry relative="1" as="geometry" />
        </mxCell>
        <mxCell id="fWArumoUGyQqup7pknku-27" value="Respond yes to host" style="rounded=0;whiteSpace=wrap;html=1;" vertex="1" parent="1">
          <mxGeometry x="1230" y="360" width="120" height="60" as="geometry" />
        </mxCell>
        <mxCell id="fWArumoUGyQqup7pknku-33" style="edgeStyle=orthogonalEdgeStyle;rounded=0;orthogonalLoop=1;jettySize=auto;html=1;entryX=0.5;entryY=0;entryDx=0;entryDy=0;" edge="1" parent="1" source="fWArumoUGyQqup7pknku-30" target="fWArumoUGyQqup7pknku-31">
          <mxGeometry relative="1" as="geometry" />
        </mxCell>
        <mxCell id="fWArumoUGyQqup7pknku-30" value="Setup socket with&lt;div&gt;host&lt;/div&gt;" style="rounded=0;whiteSpace=wrap;html=1;" vertex="1" parent="1">
          <mxGeometry x="1230" y="450" width="120" height="60" as="geometry" />
        </mxCell>
        <mxCell id="fWArumoUGyQqup7pknku-34" style="edgeStyle=orthogonalEdgeStyle;rounded=0;orthogonalLoop=1;jettySize=auto;html=1;entryX=0.5;entryY=0;entryDx=0;entryDy=0;" edge="1" parent="1" source="fWArumoUGyQqup7pknku-31" target="fWArumoUGyQqup7pknku-22">
          <mxGeometry relative="1" as="geometry" />
        </mxCell>
        <mxCell id="fWArumoUGyQqup7pknku-31" value="Ask host for project&amp;nbsp;&lt;div&gt;details&lt;/div&gt;" style="rounded=0;whiteSpace=wrap;html=1;" vertex="1" parent="1">
          <mxGeometry x="1230" y="540" width="120" height="60" as="geometry" />
        </mxCell>
        <mxCell id="fWArumoUGyQqup7pknku-35" value="Yes" style="text;html=1;align=center;verticalAlign=middle;whiteSpace=wrap;rounded=0;" vertex="1" parent="1">
          <mxGeometry x="1241" y="320" width="60" height="30" as="geometry" />
        </mxCell>
        <mxCell id="fWArumoUGyQqup7pknku-36" value="Yes" style="text;html=1;align=center;verticalAlign=middle;whiteSpace=wrap;rounded=0;" vertex="1" parent="1">
          <mxGeometry x="920" y="375" width="60" height="30" as="geometry" />
        </mxCell>
        <mxCell id="fWArumoUGyQqup7pknku-37" value="end" style="ellipse;whiteSpace=wrap;html=1;" vertex="1" parent="1">
          <mxGeometry x="820" y="710" width="120" height="80" as="geometry" />
        </mxCell>
        <mxCell id="fWArumoUGyQqup7pknku-39" value="no" style="text;html=1;align=center;verticalAlign=middle;whiteSpace=wrap;rounded=0;" vertex="1" parent="1">
          <mxGeometry x="883" y="465" width="60" height="30" as="geometry" />
        </mxCell>
        <mxCell id="fWArumoUGyQqup7pknku-47" style="edgeStyle=orthogonalEdgeStyle;rounded=0;orthogonalLoop=1;jettySize=auto;html=1;" edge="1" parent="1" source="fWArumoUGyQqup7pknku-40" target="fWArumoUGyQqup7pknku-41">
          <mxGeometry relative="1" as="geometry">
            <Array as="points">
              <mxPoint x="150" y="220" />
              <mxPoint x="150" y="60" />
            </Array>
          </mxGeometry>
        </mxCell>
        <mxCell id="fWArumoUGyQqup7pknku-40" value="call appListener" style="rounded=0;whiteSpace=wrap;html=1;" vertex="1" parent="1">
          <mxGeometry x="340" y="190" width="120" height="60" as="geometry" />
        </mxCell>
        <mxCell id="fWArumoUGyQqup7pknku-92" style="edgeStyle=orthogonalEdgeStyle;rounded=0;orthogonalLoop=1;jettySize=auto;html=1;" edge="1" parent="1" source="fWArumoUGyQqup7pknku-41" target="fWArumoUGyQqup7pknku-44">
          <mxGeometry relative="1" as="geometry" />
        </mxCell>
        <mxCell id="fWArumoUGyQqup7pknku-41" value="function appListener" style="ellipse;whiteSpace=wrap;html=1;" vertex="1" parent="1">
          <mxGeometry x="-220" width="120" height="80" as="geometry" />
        </mxCell>
        <mxCell id="fWArumoUGyQqup7pknku-89" style="edgeStyle=orthogonalEdgeStyle;rounded=0;orthogonalLoop=1;jettySize=auto;html=1;entryX=1;entryY=0.5;entryDx=0;entryDy=0;" edge="1" parent="1" source="fWArumoUGyQqup7pknku-44" target="fWArumoUGyQqup7pknku-45">
          <mxGeometry relative="1" as="geometry" />
        </mxCell>
        <mxCell id="fWArumoUGyQqup7pknku-44" value="Is someone creating&lt;div&gt;a project&lt;/div&gt;&lt;div&gt;(call createProject)&lt;/div&gt;" style="rhombus;whiteSpace=wrap;html=1;" vertex="1" parent="1">
          <mxGeometry x="-223" y="120" width="123" height="120" as="geometry" />
        </mxCell>
        <mxCell id="fWArumoUGyQqup7pknku-58" style="edgeStyle=orthogonalEdgeStyle;rounded=0;orthogonalLoop=1;jettySize=auto;html=1;entryX=0.5;entryY=0;entryDx=0;entryDy=0;" edge="1" parent="1" source="fWArumoUGyQqup7pknku-45" target="fWArumoUGyQqup7pknku-46">
          <mxGeometry relative="1" as="geometry" />
        </mxCell>
        <mxCell id="fWArumoUGyQqup7pknku-45" value="function createProject" style="ellipse;whiteSpace=wrap;html=1;" vertex="1" parent="1">
          <mxGeometry x="-560" width="120" height="80" as="geometry" />
        </mxCell>
        <mxCell id="fWArumoUGyQqup7pknku-54" style="edgeStyle=orthogonalEdgeStyle;rounded=0;orthogonalLoop=1;jettySize=auto;html=1;" edge="1" parent="1" source="fWArumoUGyQqup7pknku-46" target="fWArumoUGyQqup7pknku-50">
          <mxGeometry relative="1" as="geometry" />
        </mxCell>
        <mxCell id="fWArumoUGyQqup7pknku-59" style="edgeStyle=orthogonalEdgeStyle;rounded=0;orthogonalLoop=1;jettySize=auto;html=1;entryX=0.5;entryY=0;entryDx=0;entryDy=0;" edge="1" parent="1" source="fWArumoUGyQqup7pknku-46" target="fWArumoUGyQqup7pknku-48">
          <mxGeometry relative="1" as="geometry" />
        </mxCell>
        <mxCell id="fWArumoUGyQqup7pknku-46" value="Open / create folder&amp;nbsp;&lt;div&gt;and initialise gui&lt;/div&gt;" style="rounded=0;whiteSpace=wrap;html=1;" vertex="1" parent="1">
          <mxGeometry x="-560" y="120" width="120" height="60" as="geometry" />
        </mxCell>
        <mxCell id="fWArumoUGyQqup7pknku-63" style="edgeStyle=orthogonalEdgeStyle;rounded=0;orthogonalLoop=1;jettySize=auto;html=1;entryX=0.5;entryY=0;entryDx=0;entryDy=0;" edge="1" parent="1" source="fWArumoUGyQqup7pknku-48" target="fWArumoUGyQqup7pknku-62">
          <mxGeometry relative="1" as="geometry" />
        </mxCell>
        <mxCell id="fWArumoUGyQqup7pknku-48" value="initialise list of&lt;div&gt;participants&lt;/div&gt;" style="rounded=0;whiteSpace=wrap;html=1;" vertex="1" parent="1">
          <mxGeometry x="-560" y="230" width="120" height="60" as="geometry" />
        </mxCell>
        <mxCell id="fWArumoUGyQqup7pknku-55" style="edgeStyle=orthogonalEdgeStyle;rounded=0;orthogonalLoop=1;jettySize=auto;html=1;entryX=0.5;entryY=0;entryDx=0;entryDy=0;" edge="1" parent="1" source="fWArumoUGyQqup7pknku-49" target="fWArumoUGyQqup7pknku-50">
          <mxGeometry relative="1" as="geometry" />
        </mxCell>
        <mxCell id="fWArumoUGyQqup7pknku-49" value="function openProject" style="ellipse;whiteSpace=wrap;html=1;" vertex="1" parent="1">
          <mxGeometry x="-890" width="120" height="80" as="geometry" />
        </mxCell>
        <mxCell id="fWArumoUGyQqup7pknku-56" style="edgeStyle=orthogonalEdgeStyle;rounded=0;orthogonalLoop=1;jettySize=auto;html=1;entryX=0.5;entryY=0;entryDx=0;entryDy=0;" edge="1" parent="1" source="fWArumoUGyQqup7pknku-50" target="fWArumoUGyQqup7pknku-51">
          <mxGeometry relative="1" as="geometry" />
        </mxCell>
        <mxCell id="fWArumoUGyQqup7pknku-50" value="Find the project&lt;div&gt;start listener for diretoruy&lt;/div&gt;" style="rounded=0;whiteSpace=wrap;html=1;" vertex="1" parent="1">
          <mxGeometry x="-890" y="120" width="120" height="60" as="geometry" />
        </mxCell>
        <mxCell id="fWArumoUGyQqup7pknku-57" style="edgeStyle=orthogonalEdgeStyle;rounded=0;orthogonalLoop=1;jettySize=auto;html=1;entryX=0.5;entryY=0;entryDx=0;entryDy=0;" edge="1" parent="1" source="fWArumoUGyQqup7pknku-51" target="fWArumoUGyQqup7pknku-53">
          <mxGeometry relative="1" as="geometry" />
        </mxCell>
        <mxCell id="fWArumoUGyQqup7pknku-51" value="Change opened files and reset search cache" style="rounded=0;whiteSpace=wrap;html=1;" vertex="1" parent="1">
          <mxGeometry x="-890" y="220" width="120" height="60" as="geometry" />
        </mxCell>
        <mxCell id="fWArumoUGyQqup7pknku-53" value="end" style="ellipse;whiteSpace=wrap;html=1;" vertex="1" parent="1">
          <mxGeometry x="-890" y="320" width="120" height="80" as="geometry" />
        </mxCell>
        <mxCell id="fWArumoUGyQqup7pknku-64" style="edgeStyle=orthogonalEdgeStyle;rounded=0;orthogonalLoop=1;jettySize=auto;html=1;" edge="1" parent="1" source="fWArumoUGyQqup7pknku-62">
          <mxGeometry relative="1" as="geometry">
            <mxPoint x="-500" y="485" as="targetPoint" />
          </mxGeometry>
        </mxCell>
        <mxCell id="fWArumoUGyQqup7pknku-62" value="Are there people&lt;div&gt;they want to&amp;nbsp;&lt;/div&gt;&lt;div&gt;invite&lt;/div&gt;" style="rhombus;whiteSpace=wrap;html=1;" vertex="1" parent="1">
          <mxGeometry x="-561.5" y="330" width="123" height="120" as="geometry" />
        </mxCell>
        <mxCell id="fWArumoUGyQqup7pknku-66" value="no" style="text;html=1;align=center;verticalAlign=middle;whiteSpace=wrap;rounded=0;" vertex="1" parent="1">
          <mxGeometry x="-510" y="450" width="60" height="30" as="geometry" />
        </mxCell>
        <mxCell id="fWArumoUGyQqup7pknku-80" style="edgeStyle=orthogonalEdgeStyle;rounded=0;orthogonalLoop=1;jettySize=auto;html=1;" edge="1" parent="1" source="fWArumoUGyQqup7pknku-67" target="fWArumoUGyQqup7pknku-69">
          <mxGeometry relative="1" as="geometry" />
        </mxCell>
        <mxCell id="fWArumoUGyQqup7pknku-67" value="function inviteToProject" style="ellipse;whiteSpace=wrap;html=1;" vertex="1" parent="1">
          <mxGeometry x="-1190" width="120" height="80" as="geometry" />
        </mxCell>
        <mxCell id="fWArumoUGyQqup7pknku-81" style="edgeStyle=orthogonalEdgeStyle;rounded=0;orthogonalLoop=1;jettySize=auto;html=1;entryX=0.5;entryY=0;entryDx=0;entryDy=0;" edge="1" parent="1" source="fWArumoUGyQqup7pknku-69" target="fWArumoUGyQqup7pknku-70">
          <mxGeometry relative="1" as="geometry" />
        </mxCell>
        <mxCell id="fWArumoUGyQqup7pknku-69" value="Enter ip address" style="shape=parallelogram;perimeter=parallelogramPerimeter;whiteSpace=wrap;html=1;fixedSize=1;" vertex="1" parent="1">
          <mxGeometry x="-1190" y="120" width="120" height="60" as="geometry" />
        </mxCell>
        <mxCell id="fWArumoUGyQqup7pknku-84" style="edgeStyle=orthogonalEdgeStyle;rounded=0;orthogonalLoop=1;jettySize=auto;html=1;entryX=0.5;entryY=0;entryDx=0;entryDy=0;" edge="1" parent="1" source="fWArumoUGyQqup7pknku-70" target="fWArumoUGyQqup7pknku-82">
          <mxGeometry relative="1" as="geometry" />
        </mxCell>
        <mxCell id="fWArumoUGyQqup7pknku-70" value="sends an inivite request to heir listener" style="rounded=0;whiteSpace=wrap;html=1;" vertex="1" parent="1">
          <mxGeometry x="-1190" y="220" width="120" height="60" as="geometry" />
        </mxCell>
        <mxCell id="fWArumoUGyQqup7pknku-76" style="edgeStyle=orthogonalEdgeStyle;rounded=0;orthogonalLoop=1;jettySize=auto;html=1;entryX=1;entryY=0.5;entryDx=0;entryDy=0;" edge="1" parent="1" source="fWArumoUGyQqup7pknku-72" target="fWArumoUGyQqup7pknku-70">
          <mxGeometry relative="1" as="geometry">
            <Array as="points">
              <mxPoint x="1090" y="580" />
              <mxPoint x="1090" y="-200" />
              <mxPoint x="-990" y="-200" />
              <mxPoint x="-990" y="250" />
            </Array>
          </mxGeometry>
        </mxCell>
        <mxCell id="fWArumoUGyQqup7pknku-78" style="edgeStyle=orthogonalEdgeStyle;rounded=0;orthogonalLoop=1;jettySize=auto;html=1;entryX=0.5;entryY=0;entryDx=0;entryDy=0;" edge="1" parent="1" source="fWArumoUGyQqup7pknku-72" target="fWArumoUGyQqup7pknku-37">
          <mxGeometry relative="1" as="geometry" />
        </mxCell>
        <mxCell id="fWArumoUGyQqup7pknku-72" value="Is the event a&amp;nbsp;&lt;div&gt;response to&amp;nbsp;&lt;/div&gt;&lt;div&gt;an inivte&lt;/div&gt;" style="rhombus;whiteSpace=wrap;html=1;" vertex="1" parent="1">
          <mxGeometry x="820" y="520" width="123" height="120" as="geometry" />
        </mxCell>
        <mxCell id="fWArumoUGyQqup7pknku-77" value="yesa" style="text;html=1;align=center;verticalAlign=middle;whiteSpace=wrap;rounded=0;" vertex="1" parent="1">
          <mxGeometry x="940" y="540" width="60" height="30" as="geometry" />
        </mxCell>
        <mxCell id="fWArumoUGyQqup7pknku-79" value="no" style="text;html=1;align=center;verticalAlign=middle;whiteSpace=wrap;rounded=0;" vertex="1" parent="1">
          <mxGeometry x="890" y="640" width="60" height="30" as="geometry" />
        </mxCell>
        <mxCell id="fWArumoUGyQqup7pknku-86" style="edgeStyle=orthogonalEdgeStyle;rounded=0;orthogonalLoop=1;jettySize=auto;html=1;" edge="1" parent="1" source="fWArumoUGyQqup7pknku-82" target="fWArumoUGyQqup7pknku-83">
          <mxGeometry relative="1" as="geometry" />
        </mxCell>
        <mxCell id="fWArumoUGyQqup7pknku-82" value="Add user to participant lists" style="rounded=0;whiteSpace=wrap;html=1;" vertex="1" parent="1">
          <mxGeometry x="-1190" y="320" width="120" height="60" as="geometry" />
        </mxCell>
        <mxCell id="fWArumoUGyQqup7pknku-88" style="edgeStyle=orthogonalEdgeStyle;rounded=0;orthogonalLoop=1;jettySize=auto;html=1;entryX=0.5;entryY=0;entryDx=0;entryDy=0;" edge="1" parent="1" source="fWArumoUGyQqup7pknku-83" target="fWArumoUGyQqup7pknku-87">
          <mxGeometry relative="1" as="geometry" />
        </mxCell>
        <mxCell id="fWArumoUGyQqup7pknku-83" value="create socket with&amp;nbsp;&lt;div&gt;user&lt;/div&gt;" style="rounded=0;whiteSpace=wrap;html=1;" vertex="1" parent="1">
          <mxGeometry x="-1190" y="420" width="120" height="60" as="geometry" />
        </mxCell>
        <mxCell id="fWArumoUGyQqup7pknku-87" value="end" style="ellipse;whiteSpace=wrap;html=1;" vertex="1" parent="1">
          <mxGeometry x="-1190" y="520" width="120" height="80" as="geometry" />
        </mxCell>
        <mxCell id="fWArumoUGyQqup7pknku-90" value="yes" style="text;html=1;align=center;verticalAlign=middle;whiteSpace=wrap;rounded=0;" vertex="1" parent="1">
          <mxGeometry x="-283" y="135" width="60" height="30" as="geometry" />
        </mxCell>
        <mxCell id="fWArumoUGyQqup7pknku-91" value="no" style="text;html=1;align=center;verticalAlign=middle;whiteSpace=wrap;rounded=0;" vertex="1" parent="1">
          <mxGeometry x="-150" y="230" width="60" height="30" as="geometry" />
        </mxCell>
        <mxCell id="fWArumoUGyQqup7pknku-103" style="edgeStyle=orthogonalEdgeStyle;rounded=0;orthogonalLoop=1;jettySize=auto;html=1;entryX=0.5;entryY=0;entryDx=0;entryDy=0;" edge="1" parent="1" source="fWArumoUGyQqup7pknku-93" target="fWArumoUGyQqup7pknku-96">
          <mxGeometry relative="1" as="geometry" />
        </mxCell>
        <mxCell id="fWArumoUGyQqup7pknku-93" value="function isHost" style="ellipse;whiteSpace=wrap;html=1;" vertex="1" parent="1">
          <mxGeometry x="-1540" width="120" height="80" as="geometry" />
        </mxCell>
        <mxCell id="fWArumoUGyQqup7pknku-99" style="edgeStyle=orthogonalEdgeStyle;rounded=0;orthogonalLoop=1;jettySize=auto;html=1;" edge="1" parent="1" source="fWArumoUGyQqup7pknku-96" target="fWArumoUGyQqup7pknku-97">
          <mxGeometry relative="1" as="geometry" />
        </mxCell>
        <mxCell id="fWArumoUGyQqup7pknku-100" style="edgeStyle=orthogonalEdgeStyle;rounded=0;orthogonalLoop=1;jettySize=auto;html=1;" edge="1" parent="1" source="fWArumoUGyQqup7pknku-96" target="fWArumoUGyQqup7pknku-98">
          <mxGeometry relative="1" as="geometry" />
        </mxCell>
        <mxCell id="fWArumoUGyQqup7pknku-96" value="Is the user a&amp;nbsp;&lt;div&gt;host&lt;/div&gt;" style="rhombus;whiteSpace=wrap;html=1;" vertex="1" parent="1">
          <mxGeometry x="-1543" y="130" width="123" height="120" as="geometry" />
        </mxCell>
        <mxCell id="fWArumoUGyQqup7pknku-97" value="return true" style="ellipse;whiteSpace=wrap;html=1;" vertex="1" parent="1">
          <mxGeometry x="-1610" y="300" width="120" height="80" as="geometry" />
        </mxCell>
        <mxCell id="fWArumoUGyQqup7pknku-98" value="return false" style="ellipse;whiteSpace=wrap;html=1;" vertex="1" parent="1">
          <mxGeometry x="-1470" y="300" width="120" height="80" as="geometry" />
        </mxCell>
        <mxCell id="fWArumoUGyQqup7pknku-101" value="yes" style="text;html=1;align=center;verticalAlign=middle;whiteSpace=wrap;rounded=0;" vertex="1" parent="1">
          <mxGeometry x="-1580" y="245" width="60" height="30" as="geometry" />
        </mxCell>
        <mxCell id="fWArumoUGyQqup7pknku-102" value="no" style="text;html=1;align=center;verticalAlign=middle;whiteSpace=wrap;rounded=0;" vertex="1" parent="1">
          <mxGeometry x="-1450" y="245" width="60" height="30" as="geometry" />
        </mxCell>
        <mxCell id="fWArumoUGyQqup7pknku-108" style="edgeStyle=orthogonalEdgeStyle;rounded=0;orthogonalLoop=1;jettySize=auto;html=1;entryX=0.5;entryY=0;entryDx=0;entryDy=0;" edge="1" parent="1" source="fWArumoUGyQqup7pknku-104" target="fWArumoUGyQqup7pknku-107">
          <mxGeometry relative="1" as="geometry" />
        </mxCell>
        <mxCell id="fWArumoUGyQqup7pknku-104" value="function save" style="ellipse;whiteSpace=wrap;html=1;" vertex="1" parent="1">
          <mxGeometry x="-1980" width="120" height="80" as="geometry" />
        </mxCell>
        <mxCell id="fWArumoUGyQqup7pknku-107" value="Call isHost" style="rhombus;whiteSpace=wrap;html=1;" vertex="1" parent="1">
          <mxGeometry x="-1983" y="120" width="123" height="120" as="geometry" />
        </mxCell>
        <mxCell id="fWArumoUGyQqup7pknku-109" value="true" style="text;html=1;align=center;verticalAlign=middle;whiteSpace=wrap;rounded=0;" vertex="1" parent="1">
          <mxGeometry x="-1900" y="230" width="60" height="30" as="geometry" />
        </mxCell>
        <mxCell id="fWArumoUGyQqup7pknku-110" value="false" style="text;html=1;align=center;verticalAlign=middle;whiteSpace=wrap;rounded=0;" vertex="1" parent="1">
          <mxGeometry x="-2067" y="150" width="60" height="30" as="geometry" />
        </mxCell>
        <mxCell id="fWArumoUGyQqup7pknku-111" value="Iterate through&lt;div&gt;participant list&lt;/div&gt;" style="rounded=0;whiteSpace=wrap;html=1;" vertex="1" parent="1">
          <mxGeometry x="-1981.5" y="275" width="120" height="60" as="geometry" />
        </mxCell>
      </root>
    </mxGraphModel>
  </diagram>
</mxfile>
